<svg width="24" height="24" viewBox="0 0 24 24" fill="none" xmlns="http://www.w3.org/2000/svg">
<g clip-path="url(#clip0_24_97)">
<path d="M11.8091 2.1624C14.8606 2.1624 15.2229 2.1744 16.4286 2.2332C19.5257 2.3808 20.9726 3.924 21.1143 7.152C21.1691 8.4168 21.1794 8.796 21.1794 12C21.1794 15.2064 21.168 15.5856 21.1131 16.8504C20.9714 20.0748 19.5291 21.6204 16.4286 21.7692C15.2229 21.8268 14.8629 21.8388 11.8091 21.8388C8.75772 21.8388 8.39657 21.8268 7.192 21.7692C4.08686 21.6204 2.648 20.07 2.50629 16.8492C2.45143 15.5844 2.44 15.2052 2.44 12C2.44 8.796 2.45143 8.4168 2.50629 7.152C2.648 3.924 4.09143 2.3796 7.192 2.232C8.39657 2.1744 8.75772 2.1624 11.8091 2.1624ZM11.8091 0C8.70629 0 8.31771 0.0144 7.09829 0.072C2.94743 0.2724 0.64 2.6904 0.450285 7.0524C0.394285 8.3328 0.381714 8.7408 0.381714 12C0.381714 15.2592 0.394285 15.6684 0.450285 16.9476C0.64 21.306 2.94286 23.7276 7.09714 23.928C8.31771 23.9856 8.70629 24 11.8091 24C14.9131 24 15.3029 23.9856 16.5223 23.928C20.6686 23.7276 22.9806 21.3096 23.1691 16.9476C23.2251 15.6684 23.2377 15.2592 23.2377 12C23.2377 8.7408 23.2251 8.3328 23.1691 7.0536C22.9829 2.6988 20.6777 0.2736 16.5234 0.072C15.3029 0.012 14.9131 0 11.8091 0ZM11.8091 5.838C10.2527 5.838 8.76001 6.48721 7.65944 7.64281C6.55887 8.79841 5.94057 10.3657 5.94057 12C5.94057 13.6343 6.55887 15.2016 7.65944 16.3572C8.76001 17.5128 10.2527 18.162 11.8091 18.162C13.3656 18.162 14.8583 17.5128 15.9588 16.3572C17.0594 15.2016 17.6777 13.6343 17.6777 12C17.6777 10.3657 17.0594 8.79841 15.9588 7.64281C14.8583 6.48721 13.3656 5.838 11.8091 5.838ZM11.8091 15.9996C10.7989 15.9996 9.83002 15.5782 9.11567 14.8281C8.40132 14.0781 8 13.0608 8 12C8 10.9392 8.40132 9.92193 9.11567 9.17186C9.83002 8.42179 10.7989 8.0004 11.8091 8.0004C12.8194 8.0004 13.7883 8.42179 14.5026 9.17186C15.217 9.92193 15.6183 10.9392 15.6183 12C15.6183 13.0608 15.217 14.0781 14.5026 14.8281C13.7883 15.5782 12.8194 15.9996 11.8091 15.9996ZM17.9109 4.1556C17.7308 4.15552 17.5524 4.19269 17.386 4.26498C17.2196 4.33728 17.0683 4.44328 16.9409 4.57694C16.8135 4.7106 16.7125 4.8693 16.6435 5.04398C16.5745 5.21866 16.5389 5.4059 16.5389 5.595C16.5388 5.7841 16.5742 5.97137 16.643 6.14611C16.7119 6.32085 16.8128 6.47964 16.9401 6.61341C17.0674 6.74718 17.2186 6.85332 17.3849 6.92576C17.5513 6.9982 17.7296 7.03552 17.9097 7.0356C18.2734 7.0356 18.6223 6.88389 18.8795 6.61383C19.1367 6.34378 19.2811 5.97751 19.2811 5.5956C19.2811 5.21369 19.1367 4.84742 18.8795 4.57737C18.6223 4.30731 18.2734 4.1556 17.9097 4.1556H17.9109Z" fill="white"/>
</g>
<defs>
<clipPath id="clip0_24_97">
<rect width="24" height="24" fill="white"/>
</clipPath>
</defs>
</svg>
