<svg width="24" height="24" viewBox="0 0 24 24" fill="none" xmlns="http://www.w3.org/2000/svg">
<g clip-path="url(#clip0_24_93)">
<path d="M24.7612 4.00479C23.8625 4.49494 22.9091 4.81645 21.9329 4.95859C22.9614 4.20208 23.7309 3.01069 24.0976 1.60701C23.131 2.31285 22.0734 2.8102 20.9706 3.07757C20.5101 2.47261 19.9534 1.99059 19.3352 1.66142C18.717 1.33225 18.0504 1.16296 17.3767 1.16407C14.1981 1.16407 11.863 4.8139 12.5806 8.60251C10.623 8.48198 8.70781 7.85616 6.95953 6.76569C5.21125 5.67523 3.66892 4.14449 2.43269 2.2729C1.80361 3.60685 1.61103 5.18552 1.89411 6.68794C2.17719 8.19035 2.91467 9.50372 3.95661 10.361C3.17468 10.3316 2.40982 10.0724 1.72592 9.60504C1.67192 12.4118 3.30624 15.0384 5.67372 15.6216C4.94862 15.8639 4.18813 15.8992 3.45024 15.725C3.7645 16.9292 4.377 17.9824 5.20197 18.737C6.02694 19.4915 7.02305 19.9097 8.05081 19.9329C5.98711 21.9248 3.36534 22.8275 0.761169 22.4429C3.01259 24.2226 5.63279 25.1673 8.30879 25.1641C17.4499 25.1641 22.6145 15.6645 22.3025 7.14376C23.2664 6.28611 24.0985 5.22421 24.76 4.00775L24.7612 4.00479Z" fill="white"/>
</g>
<defs>
<clipPath id="clip0_24_93">
<rect width="24" height="24" fill="white"/>
</clipPath>
</defs>
</svg>
