<svg width="24" height="23" viewBox="0 0 24 23" fill="none" xmlns="http://www.w3.org/2000/svg">
<path d="M24.7612 3.00479C23.8625 3.49494 22.9091 3.81645 21.9329 3.95859C22.9614 3.20208 23.7309 2.01069 24.0976 0.607008C23.131 1.31285 22.0734 1.8102 20.9706 2.07757C20.5101 1.47261 19.9534 0.990586 19.3352 0.661415C18.717 0.332245 18.0504 0.162959 17.3767 0.164068C14.1981 0.164068 11.863 3.8139 12.5806 7.60251C10.623 7.48198 8.70781 6.85616 6.95953 5.7657C5.21125 4.67523 3.66892 3.14449 2.43269 1.2729C1.80361 2.60685 1.61103 4.18552 1.89411 5.68794C2.17719 7.19035 2.91467 8.50372 3.95661 9.36099C3.17468 9.33158 2.40982 9.07238 1.72592 8.60504C1.67192 11.4118 3.30624 14.0384 5.67372 14.6216C4.94862 14.8639 4.18813 14.8993 3.45024 14.725C3.7645 15.9292 4.377 16.9824 5.20197 17.737C6.02694 18.4915 7.02305 18.9097 8.05081 18.9329C5.98711 20.9248 3.36534 21.8275 0.761169 21.4429C3.01259 23.2226 5.63279 24.1673 8.30879 24.1641C17.4499 24.1641 22.6145 14.6645 22.3025 6.14376C23.2664 5.28611 24.0985 4.22421 24.76 3.00775L24.7612 3.00479Z" fill="white"/>
</svg>
