<svg width="24" height="24" viewBox="0 0 24 24" fill="none" xmlns="http://www.w3.org/2000/svg">
<g clip-path="url(#clip0_24_91)">
<path d="M12 0C5.3736 0 0 5.3724 0 12C0 17.0844 3.1632 21.426 7.6272 23.1744C7.5216 22.2252 7.4268 20.7684 7.6692 19.7328C7.8876 18.7968 9.0756 13.7688 9.0756 13.7688C9.0756 13.7688 8.7168 13.0488 8.7168 11.9856C8.7168 10.3176 9.684 9.072 10.8888 9.072C11.9112 9.072 12.4056 9.84 12.4056 10.7616C12.4056 11.7912 11.7516 13.3296 11.412 14.7576C11.1288 15.9516 12.012 16.926 13.188 16.926C15.3216 16.926 16.9608 14.6772 16.9608 11.43C16.9608 8.5584 14.8968 6.5484 11.9484 6.5484C8.5344 6.5484 6.5304 9.1104 6.5304 11.7564C6.5304 12.7872 6.9276 13.8936 7.4244 14.4936C7.46692 14.5391 7.4969 14.5949 7.51142 14.6555C7.52593 14.716 7.52448 14.7794 7.5072 14.8392L7.1736 16.1988C7.1208 16.4184 6.9996 16.4664 6.7716 16.3596C5.2728 15.6624 4.3356 13.4712 4.3356 11.7108C4.3356 7.926 7.086 4.4484 12.2652 4.4484C16.428 4.4484 19.6632 7.416 19.6632 11.3796C19.6632 15.516 17.0556 18.8436 13.4352 18.8436C12.2196 18.8436 11.0772 18.2136 10.686 17.466L9.9384 20.3196C9.6672 21.3624 8.9364 22.6692 8.4456 23.4648C9.57 23.8128 10.7628 24 12 24C18.6264 24 24 18.6276 24 12C24 5.3724 18.6264 0 12 0Z" fill="white"/>
</g>
<defs>
<clipPath id="clip0_24_91">
<rect width="24" height="24" fill="white"/>
</clipPath>
</defs>
</svg>
